# Blender v2.63 (sub 0) OBJ File: 'computer_oldFashioned.blend'
# www.blender.org
mtllib computer_oldFashioned.mtl
o Cube
v 2.200675 -2.200000 0.124692
v 0.000675 -2.200000 0.124692
v 0.000675 -2.200000 -0.000308
v 2.200675 -2.200000 -0.000308
v 2.200674 0.000000 0.124692
v 0.000674 0.000000 0.124692
v 0.000675 0.000000 -0.000308
v 2.200675 0.000000 -0.000308
v 2.100675 -2.200000 0.124692
v 2.100675 -2.200000 -0.000308
v 2.100674 0.000000 0.124692
v 2.100675 0.000000 -0.000308
v 0.095675 -2.200000 0.124692
v 0.095674 0.000000 0.124692
v 0.095675 -2.200000 -0.000308
v 0.095675 0.000000 -0.000308
v 2.200675 -2.100000 -0.000308
v 0.000675 -2.100000 -0.000308
v 0.000675 -2.100000 0.124692
v 2.200675 -2.100000 0.124692
v 0.095675 -2.100000 -0.000308
v 0.095675 -2.100000 0.124692
v 2.100675 -2.100000 -0.000308
v 2.100675 -2.100000 0.124692
v 2.200674 -0.095000 0.124692
v 0.000674 -0.095000 0.124692
v 0.000675 -0.095000 -0.000308
v 2.200675 -0.095000 -0.000308
v 0.095675 -0.095000 -0.000308
v 2.100675 -0.095000 -0.000308
v 2.100674 -0.095000 0.124692
v 0.095674 -0.095000 0.124692
v 2.200675 -2.236239 2.224692
v 0.000675 -2.236239 2.224692
v 0.000675 -2.250000 -0.000308
v 2.200675 -2.250000 -0.000308
v 2.100675 -2.236239 2.224692
v 2.100675 -2.250000 -0.000308
v 0.095675 -2.236239 2.224692
v 0.095675 -2.250000 -0.000308
v 2.200675 -2.300000 2.224692
v 0.000675 -2.300000 2.224692
v 0.000675 -2.300000 -0.000308
v 2.200675 -2.300000 -0.000308
v 2.100675 -2.300000 2.224692
v 2.100675 -2.300000 -0.000308
v 0.095675 -2.300000 2.224692
v 0.095675 -2.300000 -0.000308
v 0.095675 -2.100000 0.074692
v 2.100675 -2.100000 0.074692
v 2.100674 -0.095000 0.074692
v 0.095674 -0.095000 0.074692
vn 0.000000 0.000000 -1.000000
vn -0.000000 1.000000 0.000000
vn -0.000001 0.000000 1.000000
vn -1.000000 0.000000 -0.000008
vn 0.000001 0.000000 -1.000000
vn 1.000000 0.000000 0.000004
vn -1.000000 -0.000004 -0.000000
vn 0.000000 0.999851 0.017254
vn -0.000000 0.000000 1.000000
vn -1.000000 0.000000 -0.000002
vn -1.000000 -0.000000 -0.000005
vn 0.000000 -1.000000 0.000000
vn 1.000000 0.000009 0.000000
vn -1.000000 0.000000 -0.000000
vn 0.000002 0.000000 1.000000
vn 1.000000 0.000000 0.000000
usemtl Material
s off
f 15//1 10//1 38//1
f 15//1 38//1 40//1
f 14//2 16//2 7//2
f 14//2 7//2 6//2
f 32//3 14//3 6//3
f 32//3 6//3 26//3
f 26//4 6//4 7//4
f 26//4 7//4 27//4
f 30//5 12//5 8//5
f 30//5 8//5 28//5
f 20//6 1//6 4//6
f 20//6 4//6 17//6
f 2//7 3//7 35//7
f 2//7 35//7 34//7
f 5//2 8//2 12//2
f 5//2 12//2 11//2
f 25//3 5//3 11//3
f 25//3 11//3 31//3
f 29//1 16//1 12//1
f 29//1 12//1 30//1
f 39//8 37//8 9//8
f 39//8 9//8 13//8
f 11//2 12//2 16//2
f 11//2 16//2 14//2
f 31//9 11//9 14//9
f 31//9 14//9 32//9
f 27//5 7//5 16//5
f 27//5 16//5 29//5
f 13//3 22//3 19//3
f 13//3 19//3 2//3
f 25//6 20//6 17//6
f 25//6 17//6 28//6
f 1//3 20//3 24//3
f 1//3 24//3 9//3
f 9//9 24//9 22//9
f 9//9 22//9 13//9
f 15//1 21//1 23//1
f 15//1 23//1 10//1
f 2//10 19//10 18//10
f 2//10 18//10 3//10
f 10//5 23//5 17//5
f 10//5 17//5 4//5
f 3//5 18//5 21//5
f 3//5 21//5 15//5
f 22//3 32//3 26//3
f 22//3 26//3 19//3
f 19//11 26//11 27//11
f 19//11 27//11 18//11
f 23//5 30//5 28//5
f 23//5 28//5 17//5
f 20//3 25//3 31//3
f 20//3 31//3 24//3
f 21//1 29//1 30//1
f 21//1 30//1 23//1
f 31//12 32//12 52//12
f 31//12 52//12 51//12
f 18//5 27//5 29//5
f 18//5 29//5 21//5
f 5//6 25//6 28//6
f 5//6 28//6 8//6
f 47//9 45//9 37//9
f 47//9 37//9 39//9
f 39//9 34//9 42//9
f 39//9 42//9 47//9
f 48//5 43//5 35//5
f 48//5 35//5 40//5
f 10//5 4//5 36//5
f 10//5 36//5 38//5
f 13//8 2//8 34//8
f 13//8 34//8 39//8
f 1//8 9//8 37//8
f 1//8 37//8 33//8
f 4//13 1//13 33//13
f 4//13 33//13 36//13
f 40//5 35//5 3//5
f 40//5 3//5 15//5
f 47//12 42//12 43//12
f 47//12 43//12 48//12
f 41//12 45//12 46//12
f 41//12 46//12 44//12
f 45//12 47//12 48//12
f 45//12 48//12 46//12
f 34//14 35//14 43//14
f 34//14 43//14 42//14
f 45//15 41//15 33//15
f 45//15 33//15 37//15
f 41//16 44//16 36//16
f 41//16 36//16 33//16
f 40//1 38//1 46//1
f 40//1 46//1 48//1
f 38//5 36//5 44//5
f 38//5 44//5 46//5
f 50//9 51//9 52//9
f 50//9 52//9 49//9
f 50//2 49//2 22//2
f 50//2 22//2 24//2
f 51//14 50//14 24//14
f 51//14 24//14 31//14
f 32//16 22//16 49//16
f 32//16 49//16 52//16
