# Blender v2.63 (sub 0) OBJ File: 'model_assaultrifle_g4.blend'
# www.blender.org
mtllib model_assaultrifle_g4_clip.mtl
o Cube.001
v 1.249405 -0.911619 -1.825545
v 2.434618 -1.123709 -1.810460
v 1.261304 -0.924314 -2.442573
v 2.450177 -1.136381 -2.427441
v 1.234340 1.573302 -1.860201
v 2.419554 1.580800 -1.845115
v 1.246239 1.560607 -2.477228
v 2.435114 1.568128 -2.462096
v 2.394527 -1.222942 -2.426563
v 2.378968 -1.210270 -1.809583
v 1.193754 -0.998179 -1.824668
v 1.205653 -1.010875 -2.441695
v 0.973814 -1.781022 -1.771215
v 2.159028 -1.993113 -1.756130
v 2.378408 -1.299286 -1.759588
v 1.193194 -1.087196 -1.774673
v 2.175932 -2.006808 -2.493098
v 0.987057 -1.794741 -2.508230
v 2.395312 -1.312981 -2.496557
v 1.206438 -1.100914 -2.511688
v 0.926706 -1.766380 -1.822062
v 0.938605 -1.779076 -2.439089
v 1.146086 -1.072554 -1.825520
v 1.157985 -1.085250 -2.442547
v 0.926146 -1.765954 -1.772067
v 1.145526 -1.072128 -1.775525
v 0.939389 -1.779673 -2.509082
v 1.158770 -1.085846 -2.512540
v 2.207254 -2.008606 -1.805179
v 2.222814 -2.021278 -2.422160
v 2.442194 -1.327451 -2.425618
v 2.426634 -1.314779 -1.808637
v 2.206694 -2.008180 -1.755184
v 2.426074 -1.314353 -1.758642
v 2.223598 -2.021875 -2.492153
v 2.442978 -1.328048 -2.495611
v 1.842011 -1.017664 -1.818003
v 1.855741 -1.030348 -2.435007
v 1.826947 1.577051 -1.852658
v 1.840676 1.564367 -2.469662
v 1.786361 -1.104225 -1.817125
v 1.800090 -1.116908 -2.434129
v 1.566421 -1.887067 -1.763672
v 1.785801 -1.193241 -1.767130
v 1.581494 -1.900774 -2.500664
v 1.800875 -1.206948 -2.504122
v 1.284276 -1.847758 -2.504447
v 1.270118 -1.834045 -1.767444
v 1.543458 1.562487 -2.473445
v 1.530644 1.575177 -1.856430
v 1.558522 -0.977331 -2.438790
v 1.545708 -0.964642 -1.821774
v 1.503656 -1.153931 -2.507905
v 1.489498 -1.140218 -1.770902
v 1.502872 -1.063892 -2.437912
v 1.490058 -1.051202 -1.820897
vn 0.999668 0.005889 0.025089
vn -0.006061 0.999768 -0.020687
vn -0.011603 0.013011 0.999848
vn -0.999797 -0.006328 -0.019150
vn 0.011607 -0.013011 -0.999848
vn -0.840871 0.540270 -0.032302
vn 0.840972 -0.540388 0.027336
vn 0.841464 -0.539622 0.027330
vn 0.454874 -0.745211 0.487596
vn 0.301476 0.953462 -0.004753
vn 0.175964 0.979447 -0.098594
vn 0.175965 0.979447 -0.098593
vn 0.175965 0.979447 -0.098589
vn 0.118259 0.430294 0.894909
vn 0.185409 0.982641 -0.006304
vn 0.185519 0.982500 -0.016638
vn 0.186037 0.982421 -0.015486
vn 0.185938 0.982541 -0.006295
vn 0.185938 0.982541 -0.006297
vn 0.176204 0.975086 -0.134754
vn 0.301477 0.953462 -0.004753
vn -0.006027 0.037397 0.999282
vn 0.173298 0.949945 -0.259948
vn 0.432045 -0.677422 -0.595347
vn -0.650712 -0.759324 -0.000815
vn -0.953115 0.301220 -0.028950
vn -0.953409 0.301391 -0.013255
vn -0.948941 0.315172 -0.013317
vn -0.952683 0.302624 -0.028510
vn -0.650749 -0.759293 -0.000816
vn -0.118787 -0.610034 0.783420
vn -0.118787 -0.610034 0.783421
vn -0.118787 -0.610036 0.783419
vn 0.009379 -0.018758 -0.999780
vn 0.175604 0.984461 0.000000
vn -0.730698 -0.576777 0.365252
vn -0.909690 -0.415038 -0.014417
vn -0.676707 -0.547296 -0.492478
vn -0.011567 0.013429 0.999843
vn 0.011571 -0.013429 -0.999843
vn 0.009787 -0.016424 -0.999817
vn 0.009787 -0.016422 -0.999817
vn 0.009787 -0.016425 -0.999817
vn 0.009787 -0.016423 -0.999817
vn -0.009795 0.016429 0.999817
vn -0.009795 0.016431 0.999817
vn -0.011542 0.013723 0.999839
vn -0.076241 -0.487902 -0.869563
vn -0.076241 -0.487901 -0.869563
vn -0.076240 -0.487899 -0.869564
vn 0.011682 -0.005841 -0.999915
vn 0.830450 0.557075 0.004553
vn 0.953239 -0.301285 0.023732
vn 0.953408 -0.301392 0.013255
vn 0.950443 -0.310614 0.013294
vn 0.952949 -0.302223 0.023440
vn 0.830540 0.556940 0.004557
vn 0.014803 -0.009664 -0.999844
vn 0.011248 -0.008265 -0.999903
vn 0.014258 -0.017636 -0.999743
vn 0.011504 -0.008485 -0.999898
vn 0.011271 -0.008136 -0.999903
vn 0.016599 -0.010232 -0.999810
vn 0.006027 -0.037395 -0.999282
vn 0.006023 -0.037416 -0.999282
vn 0.011545 -0.013723 -0.999839
vn -0.014803 0.009664 0.999844
vn -0.011252 0.008267 0.999903
vn -0.014256 0.017642 0.999743
vn -0.011507 0.008486 0.999898
vn -0.011275 0.008137 0.999903
vn -0.016599 0.010232 0.999810
vn -0.006076 0.037242 0.999288
vn -0.006076 0.037243 0.999288
usemtl Material
s off
f 8//1 6//1 2//1
f 8//1 2//1 4//1
f 49//2 7//2 5//2
f 49//2 5//2 50//2
f 37//3 2//3 6//3
f 37//3 6//3 39//3
f 3//4 1//4 5//4
f 3//4 5//4 7//4
f 40//5 8//5 4//5
f 40//5 4//5 38//5
f 9//6 10//6 2//6
f 9//6 2//6 4//6
f 3//7 1//7 11//7
f 3//7 11//7 12//7
f 23//8 24//8 12//8
f 23//8 12//8 11//8
f 24//9 28//9 20//9
f 24//9 20//9 12//9
f 18//10 27//10 22//10
f 47//11 18//11 22//11
f 47//12 22//12 45//12
f 22//13 17//13 45//13
f 22//14 35//14 17//14
f 22//15 30//15 35//15
f 22//16 21//16 30//16
f 21//17 29//17 30//17
f 21//18 25//18 29//18
f 25//19 43//19 29//19
f 43//20 14//20 29//20
f 14//21 33//21 29//21
f 25//22 13//22 43//22
f 13//23 48//23 43//23
f 26//24 23//24 11//24
f 26//24 11//24 16//24
f 34//25 32//25 31//25
f 33//26 34//26 31//26
f 31//27 36//27 35//27
f 29//28 33//28 31//28
f 29//29 31//29 35//29
f 30//30 29//30 35//30
f 12//31 20//31 53//31
f 12//32 53//32 46//32
f 12//32 46//32 19//32
f 12//33 19//33 9//33
f 55//34 12//34 42//34
f 12//35 9//35 42//35
f 36//36 31//36 9//36
f 36//36 9//36 19//36
f 10//37 9//37 31//37
f 10//37 31//37 32//37
f 32//38 34//38 15//38
f 32//38 15//38 10//38
f 8//2 40//2 39//2
f 8//2 39//2 6//2
f 52//39 37//39 39//39
f 52//39 39//39 50//39
f 49//40 40//40 38//40
f 49//40 38//40 51//40
f 11//41 1//41 52//41
f 37//42 11//42 52//42
f 37//43 56//43 11//43
f 37//43 2//43 56//43
f 2//43 41//43 56//43
f 2//44 10//44 41//44
f 51//45 3//45 12//45
f 38//45 51//45 12//45
f 38//45 12//45 55//45
f 4//45 38//45 55//45
f 42//45 4//45 55//45
f 42//46 9//46 4//46
f 1//47 52//47 50//47
f 1//47 50//47 5//47
f 16//48 11//48 56//48
f 16//49 56//49 41//49
f 16//49 41//49 10//49
f 54//50 16//50 10//50
f 54//48 10//48 15//48
f 54//51 15//51 44//51
f 24//52 23//52 26//52
f 24//53 26//53 25//53
f 24//54 27//54 28//54
f 24//55 25//55 21//55
f 24//56 21//56 27//56
f 21//57 22//57 27//57
f 25//58 26//58 16//58
f 25//59 16//59 54//59
f 25//59 54//59 44//59
f 25//59 44//59 15//59
f 34//60 25//60 15//60
f 34//61 43//61 25//61
f 34//62 14//62 43//62
f 34//63 33//63 14//63
f 48//64 13//64 25//64
f 43//65 48//65 25//65
f 40//2 49//2 50//2
f 40//2 50//2 39//2
f 7//66 49//66 51//66
f 7//66 51//66 3//66
f 20//67 28//67 27//67
f 53//68 20//68 27//68
f 46//68 53//68 27//68
f 19//68 46//68 27//68
f 36//69 19//69 27//69
f 45//70 36//70 27//70
f 45//71 17//71 36//71
f 17//72 35//72 36//72
f 27//73 18//73 47//73
f 45//74 27//74 47//74
