# Blender v2.63 (sub 0) OBJ File: 'model_pistol2.blend'
# www.blender.org
mtllib model_pistol_clip.mtl
o Cube.001
v 3.086036 -5.892685 0.001330
v 3.086036 -5.892685 -0.679694
v 4.561876 -5.892685 -0.622545
v 4.561876 -5.892685 -0.055819
v 1.873161 0.118124 -0.050559
v 1.873161 0.118124 -0.627804
v 3.349002 0.118124 -0.627804
v 3.349002 0.118124 -0.050559
v 3.015636 -5.366530 -0.745551
v 3.015636 -5.366530 0.067188
v 4.491476 -5.546194 -0.745551
v 4.491476 -5.546194 0.067188
v 2.679592 -5.832279 -0.055819
v 2.679592 -5.832279 -0.622545
v 2.609191 -5.306124 -0.745551
v 2.609191 -5.306124 0.067188
v 2.997905 -5.235373 -0.050559
v 2.997905 -5.235373 -0.627804
v 4.473745 -5.417553 -0.627804
v 4.473745 -5.417553 -0.050559
vn 0.147005 0.989136 0.000000
vn 0.006109 -0.210585 -0.977557
vn 0.979977 0.199112 0.000000
vn 0.006109 -0.210585 0.977557
vn -0.000000 -1.000000 0.000000
vn -0.000000 1.000000 0.000000
vn -0.990985 -0.133971 0.000000
vn 0.082806 0.675476 -0.732718
vn 0.990634 0.136544 0.000000
vn 0.082806 0.675476 0.732718
vn -0.991167 -0.132619 0.000000
vn -0.096702 -0.188347 -0.977330
vn -0.147005 -0.989136 0.000000
vn -0.096702 -0.188347 0.977330
vn -0.978635 -0.205606 0.000000
vn 0.000000 0.000000 -1.000000
vn 0.000000 -0.000000 1.000000
usemtl 
s off
f 15//1 16//1 10//1
f 15//1 10//1 9//1
f 9//2 11//2 3//2
f 9//2 3//2 2//2
f 11//3 12//3 4//3
f 11//3 4//3 3//3
f 1//4 4//4 12//4
f 1//4 12//4 10//4
f 1//5 2//5 3//5
f 1//5 3//5 4//5
f 8//6 7//6 6//6
f 8//6 6//6 5//6
f 17//7 18//7 9//7
f 17//7 9//7 10//7
f 18//8 19//8 11//8
f 18//8 11//8 9//8
f 19//9 20//9 12//9
f 19//9 12//9 11//9
f 20//10 17//10 10//10
f 20//10 10//10 12//10
f 16//11 15//11 14//11
f 16//11 14//11 13//11
f 9//12 2//12 14//12
f 9//12 14//12 15//12
f 2//13 1//13 13//13
f 2//13 13//13 14//13
f 1//14 10//14 16//14
f 1//14 16//14 13//14
f 5//15 6//15 18//15
f 5//15 18//15 17//15
f 6//16 7//16 19//16
f 6//16 19//16 18//16
f 7//3 8//3 20//3
f 7//3 20//3 19//3
f 8//17 5//17 17//17
f 8//17 17//17 20//17
