# Blender v2.63 (sub 0) OBJ File: 'model_assaultrifle.blend'
# www.blender.org
mtllib model_assaultrifle_clip.mtl
o Cube.001
v 2.521946 -1.707145 -2.534040
v 2.518392 -1.691791 -1.625058
v 1.156349 -1.715782 -2.539234
v 1.152794 -1.700428 -1.630253
v 1.151406 -0.926302 -2.552589
v 1.147851 -0.910949 -1.643607
v 2.513449 -0.902312 -1.638413
v 2.517004 -0.917665 -2.547394
v 0.824951 -0.887224 -1.645271
v 0.828506 -0.902578 -2.554252
v 0.829125 -1.553812 -1.633995
v 0.832680 -1.569165 -2.542977
v 1.570505 -1.713162 -2.537659
v 1.566951 -1.697809 -1.628677
v 1.562008 -0.908329 -1.642032
v 1.565563 -0.923683 -2.551013
v 2.455345 -1.707566 -2.534293
v 2.451791 -1.692212 -1.625312
v 2.446848 -0.902733 -1.638666
v 2.446190 -0.918113 -2.547663
v 1.251403 -1.699805 -1.629878
v 1.254958 -1.715158 -2.538859
v 1.257005 -0.925635 -2.552187
v 1.253268 -0.910282 -1.643206
v 2.438422 -0.902786 -1.638698
v 2.518567 -1.692549 -1.669902
v 1.152969 -1.701186 -1.675097
v 1.148027 -0.911706 -1.688451
v 2.513624 -0.903069 -1.683256
v 0.825127 -0.887982 -1.690114
v 0.829300 -1.554569 -1.678839
v 1.567126 -1.698566 -1.673521
v 1.253452 -0.911040 -1.688050
v 2.451966 -1.692970 -1.670155
v 1.251578 -1.700562 -1.674721
v 2.438805 -0.903542 -1.683541
v 0.832529 -1.568516 -2.504570
v 2.516854 -0.917017 -2.508988
v 1.156199 -1.715133 -2.500828
v 0.828356 -0.901929 -2.515846
v 1.151256 -0.925654 -2.514183
v 2.521796 -1.706496 -2.495634
v 1.254807 -1.714510 -2.500453
v 1.256848 -0.924986 -2.513781
v 2.445862 -0.917466 -2.509258
v 2.455195 -1.706917 -2.495887
v 1.570355 -1.712514 -2.499253
v 1.237895 1.573942 -1.730084
v 2.423248 1.581440 -1.725575
v 1.241290 1.559996 -2.555815
v 2.430304 1.567517 -2.551292
vn 0.073351 0.997169 -0.016556
vn 0.006260 -0.999837 0.016913
vn 0.999973 0.006325 0.003803
vn 0.003909 -0.016888 -0.999850
vn -0.003911 0.016888 0.999850
vn -0.412716 -0.910756 0.013769
vn 0.003910 -0.016888 -0.999850
vn -0.003910 0.016888 0.999850
vn -0.006260 0.999837 -0.016912
vn -0.006260 0.999837 -0.016913
vn -0.006259 0.999837 -0.016913
vn 0.999973 0.006325 0.003804
vn -0.412717 -0.910755 0.013769
vn 0.999944 0.006403 0.008438
vn 0.006259 -0.999837 0.016912
vn 0.006260 -0.999837 0.016910
vn -0.999972 -0.006328 -0.004005
usemtl Material
s off
f 30//1 9//1 6//1
f 30//1 6//1 28//1
f 35//2 21//2 4//2
f 35//2 4//2 27//2
f 29//3 7//3 2//3
f 29//3 2//3 26//3
f 1//4 17//4 20//4
f 1//4 20//4 8//4
f 18//5 2//5 7//5
f 18//5 7//5 19//5
f 37//6 12//6 3//6
f 37//6 3//6 39//6
f 5//7 3//7 12//7
f 5//7 12//7 10//7
f 9//8 11//8 4//8
f 9//8 4//8 6//8
f 34//2 18//2 14//2
f 34//2 14//2 32//2
f 23//7 16//7 13//7
f 23//7 13//7 22//7
f 21//8 14//8 15//8
f 21//8 15//8 24//8
f 16//7 20//7 17//7
f 16//7 17//7 13//7
f 14//8 18//8 19//8
f 14//8 19//8 15//8
f 26//2 2//2 18//2
f 26//2 18//2 34//2
f 4//8 21//8 24//8
f 4//8 24//8 6//8
f 5//7 23//7 22//7
f 5//7 22//7 3//7
f 32//2 14//2 21//2
f 32//2 21//2 35//2
f 33//9 28//9 6//9
f 33//9 6//9 24//9
f 29//10 36//10 25//10
f 29//10 25//10 7//10
f 36//11 33//11 24//11
f 36//11 24//11 25//11
f 40//1 30//1 28//1
f 40//1 28//1 41//1
f 43//2 35//2 27//2
f 43//2 27//2 39//2
f 38//12 29//12 26//12
f 38//12 26//12 42//12
f 11//13 31//13 27//13
f 11//13 27//13 4//13
f 46//2 34//2 32//2
f 46//2 32//2 47//2
f 42//2 26//2 34//2
f 42//2 34//2 46//2
f 47//2 32//2 35//2
f 47//2 35//2 43//2
f 44//10 41//10 28//10
f 44//10 28//10 33//10
f 38//10 45//10 36//10
f 38//10 36//10 29//10
f 51//14 49//14 36//14
f 51//14 36//14 45//14
f 1//15 42//15 46//15
f 1//15 46//15 17//15
f 13//16 47//16 43//16
f 13//16 43//16 22//16
f 42//12 1//12 8//12
f 42//12 8//12 38//12
f 10//1 40//1 41//1
f 10//1 41//1 5//1
f 8//11 20//11 45//11
f 8//11 45//11 38//11
f 23//10 5//10 41//10
f 23//10 41//10 44//10
f 12//12 10//12 9//12
f 12//12 9//12 11//12
f 17//16 46//16 47//16
f 17//16 47//16 13//16
f 20//10 23//10 44//10
f 20//10 44//10 45//10
f 22//16 43//16 39//16
f 22//16 39//16 3//16
f 31//13 37//13 39//13
f 31//13 39//13 27//13
f 51//10 50//10 48//10
f 51//10 48//10 49//10
f 33//8 36//8 49//8
f 33//8 49//8 48//8
f 44//17 33//17 48//17
f 44//17 48//17 50//17
f 50//7 51//7 45//7
f 50//7 45//7 44//7
