# Blender v2.63 (sub 0) OBJ File: 'model_standardpistol.blend'
# www.blender.org
mtllib model_standardpistol.mtl
o Cube.001
v -3.023044 -1.550163 -0.700936
v -3.023044 -1.550163 -1.683238
v -1.562180 -1.550163 -1.683238
v -1.562180 -1.550163 -0.700936
v -3.023044 2.266644 -0.700936
v -3.023044 2.266644 -1.683238
v -1.562180 2.266644 -1.683238
v -1.562180 2.266644 -0.700936
vn -1.000000 0.000000 0.000000
vn 0.000000 0.000000 -1.000000
vn 1.000000 -0.000000 0.000000
vn 0.000000 -0.000000 1.000000
vn 0.000000 -1.000000 0.000000
vn 0.000000 1.000000 0.000000
usemtl 
s off
f 5//1 6//1 2//1
f 6//2 7//2 3//2
f 7//3 8//3 4//3
f 5//4 1//4 8//4
f 1//5 2//5 3//5
f 8//6 7//6 6//6
f 1//1 5//1 2//1
f 2//2 6//2 3//2
f 3//3 7//3 4//3
f 8//4 1//4 4//4
f 4//5 1//5 3//5
f 5//6 8//6 6//6
o Cube
v -1.507307 0.810008 -1.785480
v -1.507307 0.810008 -0.599339
v -3.507307 0.810008 -0.599339
v -3.507306 0.810008 -1.785480
v -1.507306 2.810008 -1.785480
v -1.507307 2.810008 -0.599338
v -3.507307 2.810008 -0.599339
v -3.507307 2.810008 -1.785480
v -3.688190 1.224529 -0.599339
v -3.688190 1.224529 -1.785480
v -3.688190 2.592948 -0.599339
v -3.688190 2.592948 -1.785480
v -1.507306 2.201900 -1.785480
v -1.507307 2.201900 -0.599338
v -3.507307 2.201900 -0.599339
v -3.507306 2.201900 -1.785480
v -3.688190 2.176875 -0.599339
v -3.688190 2.176875 -1.785480
v -3.945947 2.109044 -0.599339
v -3.945947 2.109044 -1.785480
v -3.945946 1.488356 -1.785480
v -3.945947 1.488356 -0.599339
v -3.688190 1.420525 -1.785480
v -3.688190 1.420525 -0.599339
v -1.507307 -0.573740 -1.785480
v -1.507307 -0.573740 -0.599339
v -3.507307 -0.573740 -0.599339
v -3.507306 -0.573740 -1.785480
v -3.507306 1.096464 -1.785480
v -3.507307 1.096464 -0.599339
v -1.507307 1.096464 -0.599339
v -1.507306 1.096464 -1.785480
v -1.507307 -0.736534 -1.785480
v -1.507307 -0.736534 -0.599339
v -3.385211 -0.736534 -0.599339
v -3.385211 -0.736534 -1.785480
v -1.507307 -1.021423 -1.785480
v -1.507307 -1.021423 -0.599339
v -3.073189 -1.021423 -0.599339
v -3.073189 -1.021423 -1.785480
v -0.639072 0.674346 -1.785480
v -0.639072 0.674346 -0.599339
v -0.639072 2.810008 -1.785479
v -0.639073 2.810008 -0.599338
v -0.639072 2.201900 -1.785480
v -0.639073 2.201900 -0.599338
v -0.639072 -0.573740 -1.785480
v -0.639072 -0.573740 -0.599339
v -0.639073 1.096464 -0.599339
v -0.639072 1.096464 -1.785480
v -0.639072 -0.736534 -1.785480
v -0.639072 -0.736534 -0.599339
v -0.639072 -1.021423 -1.785480
v -0.639072 -1.021423 -0.599339
v -0.476279 0.810008 -1.785480
v -0.476279 0.810008 -0.599339
v -0.476278 2.810008 -1.785479
v -0.476279 2.810008 -0.599338
v -0.476278 2.201900 -1.785479
v -0.476279 2.201900 -0.599338
v -0.476279 1.096464 -0.599339
v -0.476278 1.096464 -1.785480
v -0.299919 0.986368 -1.785480
v -0.299919 0.986368 -0.599339
v -0.299918 2.810008 -1.785479
v -0.299919 2.810008 -0.599338
v -0.299918 2.201900 -1.785479
v -0.299919 2.201900 -0.599338
v -0.299919 1.096464 -0.599339
v -0.299918 1.096464 -1.785480
v 0.107066 1.027066 -1.785480
v 0.107066 1.027066 -0.599338
v 0.107067 2.810008 -1.785479
v 0.107065 2.810008 -0.599338
v 0.107067 2.201900 -1.785479
v 0.107066 2.201900 -0.599338
v 0.107066 1.150728 -0.599338
v 0.107066 1.150728 -1.785480
v 0.731109 1.027066 -1.785479
v 0.731109 1.027066 -0.599338
v 0.731110 2.810008 -1.785479
v 0.731109 2.810008 -0.599338
v 0.731110 2.201900 -1.785479
v 0.731109 2.201900 -0.599338
v 0.731109 1.150728 -0.599338
v 0.731109 1.150728 -1.785479
v -1.507307 0.325696 -1.785480
v -3.507307 0.325696 -0.599339
v -3.507306 0.325696 -1.785480
v -1.507307 0.325696 -0.599339
v -0.639072 0.237516 -1.785480
v -0.639072 0.237516 -0.599339
v -0.394882 -0.573740 -1.785480
v -0.394882 -0.573740 -0.599339
v -0.394882 -0.736534 -1.785480
v -0.394882 -0.736534 -0.599339
v -0.394882 -1.021423 -1.785480
v -0.394882 -1.021423 -0.599339
v -0.394882 0.101855 -1.785480
v -0.394882 0.101855 -0.599339
v -0.042162 -0.315983 -1.785480
v -0.042162 -0.315983 -0.599339
v -0.042162 -0.478777 -1.785480
v -0.042162 -0.478777 -0.599339
v -0.042162 -0.763666 -1.785480
v -0.042162 -0.763666 -0.599339
v -0.042162 -0.033807 -1.785480
v -0.042162 -0.033807 -0.599339
v 0.283426 -0.046016 -1.785480
v 0.283426 -0.046016 -0.599339
v 0.283426 -0.221020 -1.785480
v 0.283426 -0.221020 -0.599339
v 0.283426 -0.505909 -1.785480
v 0.283426 -0.505909 -0.599339
v 0.554748 -0.065688 -1.785480
v 0.554748 -0.065688 -0.599339
v 1.110662 0.704984 -1.785480
v 1.110662 0.704984 -0.599339
v 0.554748 -0.313723 -1.785480
v 0.554748 -0.313723 -0.599339
v 1.089201 2.810008 -1.785479
v 1.089200 2.810008 -0.599338
v 1.089201 2.201900 -1.785479
v 1.089200 2.201900 -0.599338
v 1.089201 1.150728 -0.599338
v 1.089201 1.150728 -1.785479
v 0.916511 0.092583 -1.785480
v 0.916511 0.092583 -0.599339
v 0.916511 -0.155451 -1.785480
v 0.916511 -0.155451 -0.599339
v 1.342446 -0.432411 -1.785480
v 1.342446 -0.432411 -0.599338
v 1.347936 2.810008 -1.785479
v 1.347935 2.810008 -0.599338
v 1.347936 2.201900 -1.785479
v 1.347935 2.201900 -0.599338
v 1.347936 1.150728 -0.599338
v 1.347936 1.150728 -1.785479
v 1.596277 2.809721 -1.785479
v 1.596275 2.809721 -0.599338
v 1.590786 -1.305929 -1.785479
v 1.590786 -1.305929 -0.599338
v 1.596277 2.201613 -1.785479
v 1.596276 2.201613 -0.599338
v 1.596276 1.150441 -0.599338
v 1.596276 1.150441 -1.785479
v 1.790577 2.638811 -1.785479
v 1.790575 2.638811 -0.599338
v 1.785086 -1.564806 -1.785479
v 1.785086 -1.564806 -0.599338
v 1.790577 2.201468 -1.785479
v 1.790576 2.201468 -0.599338
v 1.790576 1.150297 -0.599338
v 1.790576 1.150297 -1.785479
v 2.006260 2.392869 -1.785479
v 2.006259 2.392869 -0.599338
v 2.000769 -1.802120 -1.785479
v 2.000769 -1.802120 -0.599338
v 2.006260 2.201323 -1.785479
v 2.006259 2.201323 -0.599338
v 2.006259 1.150151 -0.599338
v 2.006260 1.150151 -1.785479
v 2.286617 2.252550 -1.785479
v 2.286616 2.252550 -0.599338
v 2.281126 -2.341314 -1.785479
v 2.281126 -2.341314 -0.599338
v 2.286617 2.061003 -1.785479
v 2.286616 2.061003 -0.599338
v 2.286617 1.149977 -0.599338
v 2.286617 1.149977 -1.785479
v 2.491603 2.198541 -1.785479
v 2.491602 2.198541 -0.599338
v 2.486112 -2.837320 -1.785479
v 2.486112 -2.837320 -0.599338
v 2.491603 2.006994 -1.785479
v 2.491602 2.006994 -0.599338
v 2.491603 0.664752 -0.599338
v 2.491603 0.664752 -1.785479
v 2.707211 2.047615 -1.785479
v 2.707210 2.047615 -0.599338
v 2.707211 1.856068 -1.785479
v 2.707210 1.856068 -0.599338
v 2.707211 0.966603 -0.599338
v 2.707211 0.966603 -1.785479
v 2.998282 1.637960 -1.785478
v 2.998281 1.637960 -0.599337
v 2.998282 1.446413 -1.785478
v 2.998281 1.446413 -0.599338
v 2.998282 1.171431 -0.599338
v 2.998282 1.171431 -1.785479
v 3.149208 1.487034 -1.785478
v 3.149207 1.487034 -0.599337
v 3.149208 1.233459 -1.785478
v 3.149207 1.233459 -0.599338
v 2.734585 -2.923953 -0.599338
v 2.734585 -2.923953 -1.785479
v 2.740075 -0.068705 -0.599338
v 2.740076 -0.068705 -1.785479
v 3.133500 -2.967842 -0.599338
v 3.133500 -2.967842 -1.785479
v 3.138990 -0.263520 -0.599338
v 3.138991 -0.263520 -1.785479
v 3.446021 -2.619191 -0.599338
v 3.446021 -2.619191 -1.785479
v 3.451511 -0.468982 -0.599338
v 3.451512 -0.468982 -1.785479
v 3.834113 -2.180341 -0.599338
v 3.834113 -2.180341 -1.785479
v 3.839603 -1.155607 -0.599338
v 3.839604 -1.155607 -1.785479
v 4.001798 -1.974256 -0.599338
v 4.001798 -1.974256 -1.785479
v 4.007288 -1.104760 -0.599338
v 4.007288 -1.104760 -1.785479
v 4.195347 -1.677939 -0.599338
v 4.195347 -1.677939 -1.785479
v 4.200838 -1.494076 -0.599338
v 4.200838 -1.494076 -1.785479
v -1.557307 -1.204456 -1.685480
v -1.557307 -1.204456 -0.699339
v -3.023190 -1.204456 -0.699339
v -3.023189 -1.204456 -1.685480
vn -0.768221 0.640184 -0.000000
vn -1.000000 -0.000001 -0.000000
vn -0.916538 -0.399947 -0.000000
vn 0.000001 0.000000 -1.000000
vn -0.254493 0.967075 -0.000000
vn -0.254493 -0.967075 -0.000000
vn -0.800000 -0.600000 -0.000000
vn 0.964654 -0.263519 0.000000
vn -0.674269 -0.738486 -0.000000
vn 0.640184 -0.768221 0.000000
vn 0.485643 0.874157 -0.000000
vn 0.099504 -0.995037 0.000000
vn 0.707107 -0.707107 0.000000
vn 0.620703 -0.784046 0.000000
vn 0.578017 -0.816025 0.000000
vn 0.358979 0.933346 -0.000000
vn 0.590016 -0.807391 0.000000
vn 0.072311 0.997382 0.000000
vn 0.037474 0.999298 -0.000000
vn -0.979861 -0.199680 -0.000000
vn -0.647021 -0.762472 -0.000000
vn -0.953242 0.302209 0.000000
vn -0.400819 0.916157 0.000000
vn 0.400819 -0.916157 0.000000
vn -0.961883 -0.273462 -0.000000
vn 0.001156 0.999999 0.000000
vn -0.545130 -0.838352 -0.000000
vn -0.000000 -0.000001 1.000000
vn -0.000001 -0.000000 1.000000
vn 0.660466 0.750856 0.000001
vn -0.799789 -0.600281 -0.000000
vn 0.447572 0.894248 0.000000
vn -0.887233 -0.461322 -0.000000
vn -0.740029 -0.672575 -0.000000
vn 0.751842 0.659343 0.000001
vn -0.000001 -0.000001 1.000000
vn 0.573462 0.819232 0.000001
vn 0.947128 0.320858 0.000000
vn -0.924187 -0.381941 -0.000000
vn 0.254785 0.966998 0.000000
vn 0.813734 -0.581238 0.000000
vn 0.000001 0.000001 -1.000000
vn -0.000002 -0.000001 1.000000
vn 0.575494 -0.817806 0.000000
vn 0.815180 0.579207 0.000001
vn 1.000000 -0.000001 0.000000
vn 0.380134 -0.924932 0.000000
vn -0.329224 -0.944252 -0.000000
vn 0.707107 0.707107 0.000001
vn -0.109361 -0.994002 -0.000000
vn 0.744636 -0.667471 0.000000
vn 0.438827 0.898572 0.000000
vn 0.749099 -0.662458 0.000000
vn 0.549348 0.835593 0.000000
vn 0.775671 -0.631137 0.000000
vn 0.870563 0.492057 0.000000
vn 0.837223 -0.546861 0.000000
vn -0.290185 0.956971 -0.000000
vn 0.999554 -0.029848 0.000000
vn 0.895445 0.445172 0.000000
vn -0.000002 0.000001 -1.000000
vn -0.000000 -0.479458 0.877565
vn 0.000000 -0.479458 -0.877565
vn -0.964654 -0.263519 -0.000000
vn -0.740029 -0.672576 0.000000
vn -0.000000 0.000001 -1.000000
vn 1.000000 0.000002 0.000001
vn 0.380133 -0.924932 0.000000
vn 0.000001 -0.000001 1.000000
vn -0.964654 -0.263520 -0.000000
usemtl Material
s off
f 96//1 97//1 36//1
f 13//6 16//6 14//6
f 21//2 13//2 53//2
f 22//4 14//4 23//4
f 15//7 16//7 19//7
f 40//2 9//2 37//2
f 25//8 19//8 20//8
f 17//9 18//9 12//9
f 23//4 15//4 19//4
f 26//2 20//2 24//2
f 41//2 33//2 55//2
f 39//4 22//4 38//4
f 13//2 21//2 24//2
f 32//4 25//4 30//4
f 38//4 23//4 32//4
f 31//2 26//2 24//2
f 18//10 31//10 37//10
f 10//4 39//4 11//4
f 98//4 96//4 35//4
f 29//2 28//2 26//2
f 40//2 21//2 58//2
f 11//4 38//4 17//4
f 25//11 26//11 28//11
f 100//4 50//4 98//4
f 17//1 32//1 31//1
f 30//1 27//1 28//1
f 21//2 40//2 37//2
f 95//2 97//2 12//2
f 34//4 42//4 60//4
f 30//12 29//12 32//12
f 57//4 54//4 39//4
f 34//4 35//4 43//4
f 41//2 44//2 33//2
f 35//13 36//13 44//13
f 45//14 46//14 228//14
f 42//4 43//4 47//4
f 45//2 48//2 41//2
f 43//15 44//15 47//15
f 63//16 64//16 50//16
f 57//4 50//4 64//4
f 58//2 53//2 70//2
f 60//4 62//4 106//4
f 108//17 107//17 99//17
f 59//2 55//2 101//2
f 61//5 62//5 46//5
f 13//6 14//6 52//6
f 95//2 9//2 49//2
f 42//4 46//4 62//4
f 54//4 52//4 22//4
f 49//2 9//2 58//2
f 45//2 41//2 59//2
f 39//4 10//4 57//4
f 77//4 76//4 69//4
f 67//2 65//2 75//2
f 78//2 71//2 70//2
f 68//4 66//4 54//4
f 69//4 68//4 57//4
f 70//2 63//2 58//2
f 53//10 51//10 67//10
f 51//6 52//6 66//6
f 84//4 82//4 76//4
f 79//18 80//18 72//18
f 77//4 72//4 80//4
f 65//6 66//6 74//6
f 69//4 64//4 72//4
f 71//19 72//19 64//19
f 76//4 74//4 68//4
f 70//2 67//2 78//2
f 81//6 82//6 90//6
f 93//4 92//4 85//4
f 83//2 81//2 91//2
f 78//2 75//2 86//2
f 86//2 79//2 78//2
f 75//2 73//2 83//2
f 85//4 84//4 76//4
f 73//6 74//6 82//6
f 134//2 125//2 87//2
f 94//2 91//2 134//2
f 132//4 130//4 92//4
f 85//4 80//4 93//4
f 87//5 88//5 80//5
f 92//4 90//4 84//4
f 86//2 83//2 94//2
f 94//2 87//2 86//2
f 11//1 12//1 97//1
f 10//4 11//4 96//4
f 56//4 100//4 34//4
f 33//2 36//2 97//2
f 49//3 50//3 100//3
f 33//2 95//2 99//2
f 104//4 106//4 114//4
f 103//2 101//2 111//2
f 108//4 102//4 110//4
f 100//4 56//4 108//4
f 56//4 60//4 104//4
f 105//5 106//5 62//5
f 107//2 101//2 55//2
f 61//2 59//2 103//2
f 113//2 111//2 121//2
f 121//20 122//20 114//20
f 127//21 128//21 122//21
f 115//2 109//2 107//2
f 102//4 104//4 112//4
f 116//22 115//22 107//22
f 113//23 114//23 106//23
f 105//2 103//2 113//2
f 117//24 118//24 124//24
f 118//25 117//25 115//25
f 133//4 132//4 93//4
f 117//2 109//2 115//2
f 111//2 109//2 119//2
f 112//4 114//4 122//4
f 124//4 128//4 138//4
f 110//4 112//4 120//4
f 119//2 117//2 123//2
f 121//2 119//2 127//2
f 116//4 110//4 118//4
f 91//2 89//2 131//2
f 146//10 139//10 125//10
f 120//4 122//4 128//4
f 118//4 120//4 124//4
f 139//26 140//26 126//26
f 129//6 130//6 142//6
f 89//6 90//6 130//6
f 93//4 88//4 133//4
f 125//27 126//27 87//27
f 135//28 136//28 125//28
f 123//29 124//29 136//29
f 137//30 138//30 128//30
f 127//2 123//2 137//2
f 145//4 140//4 153//4
f 149//31 150//31 140//31
f 152//4 148//4 144//4
f 131//2 129//2 141//2
f 133//4 126//4 145//4
f 144//4 142//4 132//4
f 134//2 131//2 146//2
f 145//4 144//4 133//4
f 141//32 142//32 148//32
f 139//33 140//33 138//33
f 154//2 151//2 159//2
f 136//4 138//4 140//4
f 137//2 135//2 139//2
f 162//2 157//2 149//2
f 160//4 156//4 152//4
f 146//2 143//2 151//2
f 143//2 141//2 147//2
f 154//10 149//10 139//10
f 153//4 152//4 145//4
f 170//10 165//10 157//10
f 168//34 164//34 160//34
f 169//4 168//4 161//4
f 153//35 150//35 161//35
f 147//36 148//36 156//36
f 151//2 147//2 155//2
f 161//35 160//35 153//35
f 157//37 158//37 150//37
f 163//38 164//38 172//38
f 170//10 167//10 175//10
f 173//39 174//39 166//39
f 159//10 155//10 163//10
f 165//40 166//40 158//40
f 162//10 159//10 167//10
f 155//41 156//41 163//41
f 161//4 158//4 169//4
f 175//2 171//2 179//2
f 186//2 181//2 173//2
f 184//42 180//42 176//42
f 169//4 166//4 177//4
f 177//4 176//4 169//4
f 176//42 172//42 168//42
f 178//10 173//10 165//10
f 167//2 163//2 171//2
f 191//4 190//4 184//4
f 179//43 180//43 188//43
f 186//44 185//44 205//44
f 181//45 182//45 174//45
f 178//2 175//2 183//2
f 171//46 172//46 180//46
f 177//4 174//4 185//4
f 185//35 184//35 177//35
f 189//10 187//10 193//10
f 197//4 196//4 191//4
f 190//42 188//42 184//42
f 183//10 179//10 187//10
f 192//47 191//47 185//47
f 186//2 183//2 192//2
f 195//48 193//48 199//48
f 206//2 204//2 181//2
f 196//49 194//49 190//49
f 198//50 197//50 191//50
f 192//10 189//10 195//10
f 187//51 188//51 193//51
f 201//52 199//52 202//52
f 201//53 202//53 197//53
f 202//42 200//42 196//42
f 198//48 195//48 201//48
f 204//54 203//54 182//54
f 193//55 194//55 200//55
f 202//35 196//35 197//35
f 185//4 182//4 205//4
f 208//56 207//56 203//56
f 212//57 211//57 207//57
f 205//4 203//4 209//4
f 210//2 208//2 204//2
f 206//58 205//58 209//58
f 216//59 215//59 211//59
f 210//60 209//60 213//60
f 209//4 207//4 211//4
f 214//2 212//2 210//2
f 220//61 219//61 215//61
f 213//4 211//4 217//4
f 218//2 216//2 212//2
f 214//62 213//62 217//62
f 224//63 223//63 219//63
f 218//64 217//64 221//64
f 217//4 215//4 219//4
f 222//2 220//2 218//2
f 224//65 226//65 223//65
f 222//66 221//66 225//66
f 221//4 219//4 225//4
f 226//67 224//67 220//67
f 227//5 228//5 229//5
f 46//68 47//68 229//68
f 227//69 230//69 45//69
f 47//70 48//70 229//70
f 35//1 96//1 36//1
f 16//6 15//6 14//6
f 13//2 51//2 53//2
f 14//4 15//4 23//4
f 16//7 20//7 19//7
f 9//2 12//2 37//2
f 26//8 25//8 20//8
f 11//9 17//9 12//9
f 25//4 23//4 19//4
f 20//2 16//2 24//2
f 59//2 41//2 55//2
f 22//4 23//4 38//4
f 16//2 13//2 24//2
f 25//4 27//4 30//4
f 23//4 25//4 32//4
f 37//10 31//10 24//10
f 12//10 18//10 37//10
f 39//4 38//4 11//4
f 34//4 98//4 35//4
f 31//2 29//2 26//2
f 21//2 53//2 58//2
f 38//4 32//4 17//4
f 27//11 25//11 28//11
f 50//4 10//4 98//4
f 18//1 17//1 31//1
f 29//1 30//1 28//1
f 24//2 21//2 37//2
f 9//2 95//2 12//2
f 56//4 34//4 60//4
f 29//12 31//12 32//12
f 54//4 22//4 39//4
f 42//4 34//4 43//4
f 44//2 36//2 33//2
f 43//13 35//13 44//13
f 227//14 45//14 228//14
f 46//4 42//4 47//4
f 48//2 44//2 41//2
f 44//15 48//15 47//15
f 49//16 63//16 50//16
f 69//4 57//4 64//4
f 53//10 67//10 70//10
f 104//4 60//4 106//4
f 100//17 108//17 99//17
f 103//2 59//2 101//2
f 45//5 61//5 46//5
f 51//6 13//6 52//6
f 99//2 95//2 49//2
f 60//4 42//4 62//4
f 52//4 14//4 22//4
f 58//2 9//2 40//2
f 61//2 45//2 59//2
f 10//4 50//4 57//4
f 76//4 68//4 69//4
f 65//10 73//10 75//10
f 71//2 63//2 70//2
f 66//4 52//4 54//4
f 68//4 54//4 57//4
f 63//2 49//2 58//2
f 51//2 65//2 67//2
f 65//6 51//6 66//6
f 82//4 74//4 76//4
f 71//18 79//18 72//18
f 85//4 77//4 80//4
f 73//6 65//6 74//6
f 77//4 69//4 72//4
f 63//19 71//19 64//19
f 74//4 66//4 68//4
f 67//2 75//2 78//2
f 89//6 81//6 90//6
f 92//4 84//4 85//4
f 81//2 89//2 91//2
f 75//2 83//2 86//2
f 79//2 71//2 78//2
f 73//2 81//2 83//2
f 77//4 85//4 76//4
f 81//6 73//6 82//6
f 94//2 134//2 87//2
f 91//2 131//2 134//2
f 130//4 90//4 92//4
f 80//4 88//4 93//4
f 79//5 87//5 80//5
f 90//4 82//4 84//4
f 83//2 91//2 94//2
f 87//2 79//2 86//2
f 96//1 11//1 97//1
f 98//4 10//4 96//4
f 100//4 98//4 34//4
f 95//2 33//2 97//2
f 99//3 49//3 100//3
f 55//2 33//2 99//2
f 112//4 104//4 114//4
f 101//2 109//2 111//2
f 116//4 108//4 110//4
f 56//4 102//4 108//4
f 102//4 56//4 104//4
f 61//5 105//5 62//5
f 99//2 107//2 55//2
f 105//2 61//2 103//2
f 111//2 119//2 121//2
f 113//20 121//20 114//20
f 121//21 127//21 122//21
f 109//2 101//2 107//2
f 110//4 102//4 112//4
f 108//22 116//22 107//22
f 105//23 113//23 106//23
f 103//2 111//2 113//2
f 123//24 117//24 124//24
f 116//25 118//25 115//25
f 132//4 92//4 93//4
f 109//2 117//2 119//2
f 120//4 112//4 122//4
f 136//4 124//4 138//4
f 118//4 110//4 120//4
f 119//2 123//2 127//2
f 89//2 129//2 131//2
f 134//2 146//2 125//2
f 124//4 120//4 128//4
f 125//26 139//26 126//26
f 141//6 129//6 142//6
f 129//6 89//6 130//6
f 88//4 126//4 133//4
f 126//27 88//27 87//27
f 136//28 126//28 125//28
f 135//29 123//29 136//29
f 127//30 137//30 128//30
f 123//2 135//2 137//2
f 140//4 150//4 153//4
f 139//31 149//31 140//31
f 148//4 142//4 144//4
f 143//2 131//2 141//2
f 126//35 140//35 145//35
f 142//4 130//4 132//4
f 131//2 143//2 146//2
f 144//4 132//4 133//4
f 147//32 141//32 148//32
f 137//33 139//33 138//33
f 162//2 154//2 159//2
f 126//4 136//4 140//4
f 135//2 125//2 139//2
f 154//2 162//2 149//2
f 156//4 148//4 152//4
f 154//2 146//2 151//2
f 151//2 143//2 147//2
f 146//2 154//2 139//2
f 152//4 144//4 145//4
f 162//10 170//10 157//10
f 164//35 156//35 160//35
f 168//4 160//4 161//4
f 150//4 158//4 161//4
f 155//36 147//36 156//36
f 159//2 151//2 155//2
f 160//4 152//4 153//4
f 149//37 157//37 150//37
f 171//38 163//38 172//38
f 178//2 170//2 175//2
f 165//39 173//39 166//39
f 167//10 159//10 163//10
f 157//71 165//71 158//71
f 170//10 162//10 167//10
f 156//41 164//41 163//41
f 158//4 166//4 169//4
f 183//2 175//2 179//2
f 178//2 186//2 173//2
f 180//42 172//42 176//42
f 166//4 174//4 177//4
f 176//4 168//4 169//4
f 172//42 164//42 168//42
f 170//2 178//2 165//2
f 175//2 167//2 171//2
f 185//4 191//4 184//4
f 187//43 179//43 188//43
f 206//44 186//44 205//44
f 173//45 181//45 174//45
f 186//2 178//2 183//2
f 179//46 171//46 180//46
f 174//4 182//4 185//4
f 184//35 176//35 177//35
f 195//48 189//48 193//48
f 196//35 190//35 191//35
f 188//42 180//42 184//42
f 189//10 183//10 187//10
f 186//47 192//47 185//47
f 183//10 189//10 192//10
f 201//10 195//10 199//10
f 186//2 206//2 181//2
f 194//42 188//42 190//42
f 192//50 198//50 191//50
f 198//72 192//72 195//72
f 188//51 194//51 193//51
f 199//73 200//73 202//73
f 198//74 201//74 197//74
f 200//42 194//42 196//42
f 181//54 204//54 182//54
f 199//55 193//55 200//55
f 182//4 203//4 205//4
f 204//56 208//56 203//56
f 208//57 212//57 207//57
f 203//4 207//4 209//4
f 206//2 210//2 204//2
f 210//58 206//58 209//58
f 212//59 216//59 211//59
f 214//60 210//60 213//60
f 213//4 209//4 211//4
f 212//2 208//2 210//2
f 216//61 220//61 215//61
f 211//4 215//4 217//4
f 214//2 218//2 212//2
f 218//62 214//62 217//62
f 220//63 224//63 219//63
f 222//64 218//64 221//64
f 221//4 217//4 219//4
f 220//2 216//2 218//2
f 226//65 225//65 223//65
f 226//66 222//66 225//66
f 219//75 223//75 225//75
f 222//10 226//10 220//10
f 230//5 227//5 229//5
f 228//68 46//68 229//68
f 230//69 48//69 45//69
f 48//76 230//76 229//76
